<?xml version="1.0" encoding="UTF-8"?><svg id="Ebene_2" xmlns="http://www.w3.org/2000/svg" viewBox="0 0 481.96 188.25"><g id="Ebene_1-2"><path d="m112.53,160.33h2.81v1.37s2.89-1.75,5.7-1.75c4.79,0,6.88,2.93,6.88,9.65,0,7.45-2.43,10.11-8.28,10.11-1.79,0-3.72-.3-4.26-.42v8.47h-2.85v-27.43Zm2.85,3.69v12.8c.49.08,2.47.42,4.1.42,4.18,0,5.55-2.17,5.55-7.64s-1.63-7.1-4.41-7.1c-2.58,0-5.24,1.52-5.24,1.52Z" style="fill:#575656; stroke-width:0px;"/><path d="m132.82,160.33h2.81v2.58s3.31-2.28,6.95-3v2.89c-3.57.72-6.91,2.58-6.91,2.58v13.94h-2.85v-19Z" style="fill:#575656; stroke-width:0px;"/><path d="m146.23,152.73h2.85v3.3h-2.85v-3.3Zm0,7.6h2.85v19h-2.85v-19Z" style="fill:#575656; stroke-width:0px;"/><path d="m154.82,179.32v-19h2.81v1.33s3.08-1.71,5.89-1.71c5.24,0,6.42,2.58,6.42,9.35v10.03h-2.81v-9.95c0-5.02-.57-6.88-4.1-6.88-2.74,0-5.36,1.41-5.36,1.41v15.43h-2.85Z" style="fill:#575656; stroke-width:0px;"/><path d="m179.18,162.8v9.08c0,4.14.27,5.32,2.74,5.32,1.06,0,3.38-.23,3.38-.23l.19,2.36s-2.55.42-3.88.42c-3.91,0-5.24-1.48-5.24-6.95v-9.99h-2.7v-2.47h2.7v-5.81h2.81v5.81h6.04v2.47h-6.04Z" style="fill:#575656; stroke-width:0px;"/><path d="m197.83,152.04h2.81v35.71h-2.81v-35.71Z" style="fill:#575656; stroke-width:0px;"/><path d="m229.14,179.32h-2.81v-1.29s-2.93,1.67-5.77,1.67c-3.72,0-6.84-1.52-6.84-9.73,0-6.69,2.17-10.03,7.94-10.03,1.63,0,4.1.38,4.67.49v-8.4h2.81v27.28Zm-2.81-3.57v-12.88c-.61-.11-2.96-.46-4.52-.46-3.99,0-5.17,2.62-5.17,7.56,0,6.16,2.01,7.18,4.26,7.18,2.7,0,5.43-1.41,5.43-1.41Z" style="fill:#575656; stroke-width:0px;"/><path d="m234.92,152.73h2.85v3.3h-2.85v-3.3Zm0,7.6h2.85v19h-2.85v-19Z" style="fill:#575656; stroke-width:0px;"/><path d="m242.67,182.51c0-2.2,1.03-3.23,3-4.71-.68-.46-1.06-1.44-1.06-2.62,0-.72,1.29-3,1.29-3-1.6-.72-3-2.24-3-5.74,0-4.67,2.89-6.5,7.1-6.5,1.9,0,3.95.49,3.95.49l5.62-.15v2.43l-3.61-.08c.72.72,1.25,1.79,1.25,3.8,0,4.94-2.47,6.42-7.33,6.42-.38,0-1.44-.08-1.86-.15,0,0-.68,1.67-.68,2.17,0,1.52.3,1.75,4.6,1.75,5.4,0,7.33,1.06,7.33,5.58s-3.08,6.04-8.44,6.04c-6,0-8.17-1.33-8.17-5.74Zm4.94-3.57c-1.6,1.18-2.13,1.86-2.13,3.34,0,2.62,1.1,3.57,5.4,3.57,3.8,0,5.51-1.03,5.51-3.53,0-2.89-1.21-3.19-4.67-3.19-1.33,0-4.1-.19-4.1-.19Zm6.76-12.5c0-3-1.18-4.18-4.37-4.18-2.96,0-4.25,1.18-4.25,4.18s1.29,4.14,4.25,4.14c3.19,0,4.37-1.14,4.37-4.14Z" style="fill:#575656; stroke-width:0px;"/><path d="m263.31,152.73h2.85v3.3h-2.85v-3.3Zm0,7.6h2.85v19h-2.85v-19Z" style="fill:#575656; stroke-width:0px;"/><path d="m275.69,162.8v9.08c0,4.14.27,5.32,2.73,5.32,1.06,0,3.38-.23,3.38-.23l.19,2.36s-2.54.42-3.87.42c-3.91,0-5.24-1.48-5.24-6.95v-9.99h-2.7v-2.47h2.7v-5.81h2.81v5.81h6.04v2.47h-6.04Z" style="fill:#575656; stroke-width:0px;"/><path d="m298.91,175.79c.08,1.1.99,1.52,2.2,1.67l-.11,2.24c-2.01,0-3.38-.38-4.52-1.52,0,0-3.42,1.52-6.84,1.52s-5.36-1.98-5.36-5.81,1.9-5.24,5.81-5.62l5.96-.57v-1.63c0-2.66-1.14-3.61-3.42-3.61-2.66,0-7.18.49-7.18.49l-.11-2.17s4.18-.84,7.45-.84c4.29,0,6.12,1.98,6.12,6.12v9.73Zm-8.47-5.4c-2.32.23-3.23,1.33-3.23,3.42,0,2.2.95,3.5,2.89,3.5,2.81,0,5.96-1.18,5.96-1.18v-6.27l-5.62.53Z" style="fill:#575656; stroke-width:0px;"/><path d="m305.03,152.04h2.85v27.28h-2.85v-27.28Z" style="fill:#575656; stroke-width:0px;"/><path d="m322.7,152.04h2.81v35.71h-2.81v-35.71Z" style="fill:#575656; stroke-width:0px;"/><path d="m352.72,163.1s-4.22-.61-6.65-.61-4.14.65-4.14,2.89c0,1.79.91,2.28,4.94,2.96,4.75.8,6.53,1.75,6.53,5.43,0,4.45-2.81,5.93-7.37,5.93-2.43,0-6.69-.72-6.69-.72l.15-2.47s4.33.65,6.27.65c3.12,0,4.79-.68,4.79-3.27,0-1.98-.99-2.47-5.13-3.12-4.29-.68-6.34-1.48-6.34-5.28,0-4.18,3.38-5.55,6.84-5.55,2.85,0,6.88.72,6.88.72l-.08,2.43Z" style="fill:#575656; stroke-width:0px;"/><path d="m372.06,176.85l.07,2.24s-4.33.61-7.41.61c-5.66,0-7.52-3.31-7.52-9.76,0-7.22,3.12-9.99,7.94-9.99s7.64,2.66,7.64,8.89l-.15,2.17h-12.54c0,4.06,1.25,6.19,4.98,6.19,2.85,0,6.99-.34,6.99-.34Zm-2.13-8.13c0-4.71-1.44-6.38-4.79-6.38s-5.05,1.79-5.09,6.38h9.88Z" style="fill:#575656; stroke-width:0px;"/><path d="m377.49,160.33h2.81v2.58s3.3-2.28,6.95-3v2.89c-3.57.72-6.92,2.58-6.92,2.58v13.94h-2.85v-19Z" style="fill:#575656; stroke-width:0px;"/><path d="m392.16,160.33l4.45,16.53h1.41l4.6-16.53h2.93l-5.36,19h-5.7l-5.36-19h3.04Z" style="fill:#575656; stroke-width:0px;"/><path d="m409.45,152.73h2.85v3.3h-2.85v-3.3Zm0,7.6h2.85v19h-2.85v-19Z" style="fill:#575656; stroke-width:0px;"/><path d="m430.31,160.52l-.12,2.32s-3.04-.34-4.48-.34c-4.37,0-5.55,1.9-5.55,6.99,0,5.62.87,7.67,5.58,7.67,1.45,0,4.48-.34,4.48-.34l.11,2.36s-3.53.53-5.28.53c-6.04,0-7.83-2.77-7.83-10.22,0-6.88,2.24-9.54,7.9-9.54,1.75,0,5.17.57,5.17.57Z" style="fill:#575656; stroke-width:0px;"/><path d="m448.66,176.85l.07,2.24s-4.33.61-7.41.61c-5.66,0-7.52-3.31-7.52-9.76,0-7.22,3.12-9.99,7.94-9.99s7.64,2.66,7.64,8.89l-.15,2.17h-12.54c0,4.06,1.25,6.19,4.98,6.19,2.85,0,6.99-.34,6.99-.34Zm-2.13-8.13c0-4.71-1.44-6.38-4.79-6.38s-5.05,1.79-5.09,6.38h9.88Z" style="fill:#575656; stroke-width:0px;"/><path d="m61.27,125.98c-6.76,1.38-17.25,2.9-26.36,2.9C6.35,128.88,0,111.49,0,80.03S6.21,30.62,34.91,30.62c9.8,0,20.29,1.79,26.36,3.04l-.41,8.97c-6.21-1.1-17.39-2.48-24.84-2.48-21.25,0-24.98,12.7-24.98,39.88s3.45,39.33,25.25,39.33c7.73,0,17.94-1.24,24.56-2.48l.41,9.11Z" style="fill:#575656; stroke-width:0px;"/><path d="m72.59,80.16c0-31.46,8.14-49.54,37.67-49.54s37.81,17.8,37.81,49.54-8.14,48.71-37.81,48.71-37.67-16.7-37.67-48.71Zm64.45,0c0-25.81-4.97-40.16-26.77-40.16s-26.77,14.21-26.77,40.16,4.69,39.33,26.77,39.33,26.77-12.42,26.77-39.33Z" style="fill:#575656; stroke-width:0px;"/><path d="m167.53,127.5V32h10.63v85.97h41.95v9.52h-52.58Z" style="fill:#575656; stroke-width:0px;"/><path d="m224.94,80.16c0-31.46,8.14-49.54,37.67-49.54s37.81,17.8,37.81,49.54-8.14,48.71-37.81,48.71-37.67-16.7-37.67-48.71Zm64.45,0c0-25.81-4.97-40.16-26.77-40.16s-26.77,14.21-26.77,40.16,4.69,39.33,26.77,39.33,26.77-12.42,26.77-39.33Z" style="fill:#575656; stroke-width:0px;"/><path d="m328.44,90.93v36.57h-10.63V32h35.33c20.01,0,30.5,8.83,30.5,28.98,0,14.08-5.52,23.87-17.53,27.74l18.35,38.78h-11.73l-17.25-36.57h-27.05Zm24.7-49.54h-24.7v40.16h24.84c14.35,0,19.46-8.56,19.46-20.56,0-13.11-6.21-19.6-19.6-19.6Z" style="fill:#575656; stroke-width:0px;"/><rect x="431.63" width="18.08" height="32" style="fill:#66ad2d; stroke-width:0px;"/><polygon points="449.71 32 449.71 82.25 431.64 82.25 431.64 50.26 399.54 50.26 399.54 32 449.71 32" style="fill:#0090d6; stroke-width:0px;"/><rect x="449.71" y="32" width="32.25" height="18.26" style="fill:#e61972; stroke-width:0px;"/></g></svg>