<?xml version="1.0" encoding="UTF-8"?><svg id="Ebene_2" xmlns="http://www.w3.org/2000/svg" viewBox="0 0 83.03 85.32"><g id="Ebene_1-2"><rect x="33.51" y="1.42" width="18.08" height="32" style="fill:none; stroke:#fff; stroke-miterlimit:10; stroke-width:2.83px;"/><polygon points="51.59 33.42 51.59 83.66 33.52 83.66 33.52 51.68 1.42 51.68 1.42 33.42 51.59 33.42" style="fill:none; stroke:#fff; stroke-miterlimit:10; stroke-width:2.83px;"/><rect x="58.83" y="49.39" width="18.26" height="32.25" transform="translate(-15.74 21.86) rotate(-16.41)" style="fill:none; stroke:#fff; stroke-miterlimit:10; stroke-width:2.83px;"/><path d="M67.88,59.1l-1.39.41-.68-2.33c-.04-.13-.16-.21-.29-.21-.13,0-.24.1-.27.23l-.72,3.69c-.02.1.01.2.09.27.07.07.18.09.28.06l1.39-.41.68,2.33c.04.13.16.21.29.21.02,0,.05,0,.07-.01.1-.03.18-.11.2-.22l.72-3.69c.02-.1-.01-.2-.09-.27-.07-.07-.18-.09-.28-.06Z" style="fill:#fff; stroke-width:0px;"/><path d="M69.1,55.18c-1.33-.73-2.87-.89-4.32-.46s-2.66,1.4-3.38,2.73-.89,2.87-.46,4.32,1.4,2.66,2.73,3.38c1.33.73,2.87.89,4.32.46s2.66-1.4,3.38-2.73c.73-1.33.89-2.87.46-4.32s-1.4-2.66-2.73-3.38ZM70.76,62.02l-2.31-1.26-.19.95,2.05,1.12c-.6.88-1.49,1.57-2.59,1.89-2.52.74-5.16-.7-5.9-3.22-.32-1.1-.23-2.22.19-3.2l2.31,1.26.19-.95-2.05-1.12c.6-.88,1.49-1.57,2.59-1.89,2.52-.74,5.16.7,5.9,3.22.32,1.1.23,2.22-.19,3.2Z" style="fill:#fff; stroke-width:0px;"/><rect x="65.16" y="75.77" width="12.34" height="2.32" transform="translate(-18.83 23.28) rotate(-16.41)" style="fill:#e51772; stroke-width:0px;"/><rect x="64.31" y="72.9" width="12.34" height="2.32" transform="translate(-18.05 22.92) rotate(-16.41)" style="fill:#e51772; stroke-width:0px;"/><rect x="59.73" y="46.01" width="6" height="3.5" transform="translate(-10.94 19.66) rotate(-16.41)" style="fill:#fff; stroke-width:0px;"/></g></svg>