<?xml version="1.0" encoding="UTF-8"?><svg id="Ebene_2" xmlns="http://www.w3.org/2000/svg" viewBox="0 0 93.05 89.21"><g id="Ebene_1-2"><rect x="33.51" y="5.22" width="18.08" height="32" style="fill:none; stroke:#fff; stroke-miterlimit:10; stroke-width:2.83px;"/><polygon points="51.59 37.22 51.59 87.46 33.52 87.46 33.52 55.48 1.42 55.48 1.42 37.22 51.59 37.22" style="fill:none; stroke:#fff; stroke-miterlimit:10; stroke-width:2.83px;"/><rect x="63.58" y="56.23" width="18.26" height="32.25" transform="translate(-23.23 108.62) rotate(-65.57)" style="fill:none; stroke:#fff; stroke-miterlimit:10; stroke-width:2.83px;"/><path d="M80.63,12.96h-3.69v-6.19c0-.34-.23-.64-.56-.72-.33-.08-.67.07-.83.38l-4.43,8.53c-.12.23-.11.5.02.72.13.22.37.35.63.35h3.69v6.19c0,.34.23.64.56.72.06.01.12.02.18.02.27,0,.52-.15.65-.4l4.43-8.53c.12-.23.11-.5-.02-.72-.13-.22-.37-.35-.63-.35Z" style="fill:#fff; stroke-width:0px;"/><path d="M86.45,4.25c-2.74-2.74-6.38-4.25-10.25-4.25s-7.51,1.51-10.25,4.25c-2.74,2.74-4.25,6.38-4.25,10.25s1.51,7.51,4.25,10.25c2.74,2.74,6.38,4.25,10.25,4.25s7.51-1.51,10.25-4.25c2.74-2.74,4.25-6.38,4.25-10.25s-1.51-7.51-4.25-10.25ZM85.57,22.21l-4.74-4.74-1.14,2.19,4.21,4.21c-2.1,1.73-4.78,2.77-7.71,2.77-6.69,0-12.14-5.45-12.14-12.14,0-2.92,1.04-5.61,2.77-7.71l4.74,4.74,1.14-2.19-4.21-4.21c2.1-1.73,4.78-2.77,7.71-2.77,6.69,0,12.14,5.45,12.14,12.14,0,2.92-1.04,5.61-2.77,7.71Z" style="fill:#fff; stroke-width:0px;"/></g></svg>