<?xml version="1.0" encoding="UTF-8"?><svg id="Ebene_2" xmlns="http://www.w3.org/2000/svg" viewBox="0 0 161.7 161.61"><g id="Ebene_1-2"><rect x="33.51" y="77.95" width="18.08" height="32" style="fill:none; stroke:#fff; stroke-miterlimit:10; stroke-width:2.83px;"/><polygon points="51.59 109.95 51.59 160.19 33.52 160.19 33.52 128.21 1.42 128.21 1.42 109.95 51.59 109.95" style="fill:none; stroke:#fff; stroke-miterlimit:10; stroke-width:2.83px;"/><rect x="51.59" y="109.95" width="32.25" height="18.26" style="fill:none; stroke:#fff; stroke-miterlimit:10; stroke-width:2.83px;"/><path d="M75.21,71.46c3.73,0,6.76,3.03,6.76,6.76s-3.03,6.76-6.76,6.76-6.76-3.03-6.76-6.76,3.03-6.76,6.76-6.76Z" style="fill:#fff; stroke-width:0px;"/><path d="M67.12,90.91c2.27,0,4.19,1.92,4.19,4.25s-1.92,4.19-4.19,4.19-4.25-1.92-4.25-4.19,1.92-4.25,4.25-4.25Z" style="fill:#fff; stroke-width:0px;"/><path d="M102.12,0c2.97,0,5.77.7,8.44,1.86,2.21,1.05,4.31,2.5,6.17,4.25.47,0,.93-.06,1.34-.06,1.34,0,2.68.17,4.02.47.99.17,1.92.47,2.85.76.99-.29,2.04-.58,3.14-.76,1.46-.29,2.91-.47,4.37-.47,6.29,0,12,2.45,16.13,6.29,4.13,3.9,6.76,9.32,6.76,15.32,0,1.22-.12,2.39-.35,3.55-.06.41-.12.82-.23,1.16,1.81,1.34,3.32,3.03,4.48,4.89,1.57,2.5,2.45,5.36,2.45,8.39,0,4.72-2.1,8.97-5.47,12.06-2.85,2.62-6.7,4.37-10.95,4.78-1.34,2.68-3.2,4.95-5.53,6.64-2.74,2.04-6.06,3.2-9.67,3.2-1.81,0-3.55-.29-5.18-.87-.93-.29-1.81-.7-2.62-1.16-1.46,1.22-3.09,2.27-4.83,3.03-2.5,1.05-5.24,1.69-8.15,1.69-3.38,0-6.58-.82-9.32-2.27-2.27-1.16-4.25-2.74-5.82-4.6-.47.12-.93.23-1.4.29-1.16.17-2.33.29-3.49.29-5.94,0-11.36-2.33-15.32-6-3.96-3.73-6.41-8.85-6.41-14.56,0-2.91.64-5.71,1.86-8.27.93-1.98,2.15-3.73,3.61-5.3-.17-.47-.29-.93-.41-1.4-.29-1.16-.47-2.39-.47-3.67,0-3.2.99-6.17,2.74-8.56,1.46-2.04,3.44-3.67,5.77-4.6,1.92-4.66,4.78-8.56,8.21-11.41,3.84-3.14,8.39-4.95,13.28-4.95ZM108.12,7.16c-1.86-.87-3.9-1.34-6-1.34-3.49,0-6.81,1.34-9.61,3.61-2.97,2.45-5.42,6-6.93,10.25l-.52,1.4-1.46.41c-1.63.47-3.03,1.46-4.02,2.85-1.05,1.4-1.63,3.2-1.63,5.18,0,.76.12,1.51.29,2.21.17.76.47,1.46.82,2.1l1.11,2.04-1.75,1.57c-1.63,1.4-2.91,3.03-3.79,4.89-.82,1.81-1.28,3.79-1.28,5.82,0,4.08,1.75,7.69,4.54,10.37,2.91,2.68,6.93,4.37,11.36,4.37.87,0,1.81-.12,2.62-.23.93-.12,1.75-.35,2.56-.58l2.1-.64,1.16,1.81c1.22,1.81,2.91,3.32,4.89,4.31,1.98,1.05,4.25,1.63,6.7,1.63,2.1,0,4.08-.41,5.82-1.16,1.81-.82,3.38-1.98,4.66-3.38l1.81-1.98,2.1,1.63c.93.7,1.98,1.28,3.09,1.63,1.05.41,2.15.58,3.32.58,2.33,0,4.48-.76,6.23-2.1,1.92-1.34,3.44-3.38,4.31-5.71l.7-1.86h2.04c3.49-.06,6.64-1.34,8.97-3.44,2.15-1.98,3.55-4.78,3.55-7.75,0-1.98-.58-3.79-1.51-5.36-1.05-1.63-2.56-3.09-4.43-4.08l-2.1-1.22.82-2.33c.29-.76.47-1.57.64-2.45.12-.82.23-1.69.23-2.56,0-4.31-1.92-8.21-4.95-11.07-3.09-2.91-7.34-4.72-12.11-4.72-1.16,0-2.27.12-3.32.35-1.16.17-2.21.47-3.26.87h-2.15c-.93-.41-1.86-.7-2.8-.93-.93-.17-1.86-.29-2.85-.29-.35,0-.7.06-.99.06-.35,0-.7.06-.99.12l-1.51.23-1.05-1.11c-1.57-1.75-3.44-3.09-5.42-4.02Z" style="fill:#fff; stroke-width:0px;"/><path d="M86.51,50.67l8.15-9.78h-6.29c-.35,0-.64-.06-.93-.12-.29-.12-.58-.23-.82-.41v-.06c-.17-.17-.35-.41-.47-.64-.12-.29-.17-.52-.17-.82,0-.35.06-.58.17-.87.12-.23.23-.47.47-.7.23-.17.52-.35.82-.41.29-.12.58-.17.93-.17h10.13c.87,0,1.51.23,1.98.7.47.41.76,1.05.76,1.86,0,.35-.06.7-.12.99s-.17.58-.35.82c-.12.17-.29.47-.52.76s-.52.64-.87.99h0l-7.57,9.03h7.92c.7,0,1.28.17,1.69.52h0c.23.17.41.41.52.7.12.23.17.52.17.82s-.06.58-.17.87c-.12.23-.29.47-.47.7h0c-.23.17-.52.35-.82.41-.29.12-.58.17-.93.17h-11.59c-.47,0-.87-.06-1.22-.17-.41-.12-.76-.29-1.05-.58h0c-.29-.23-.47-.52-.64-.87-.12-.35-.17-.7-.17-1.05v-.47c.06-.12.06-.23.12-.35v-.06c.06-.06.12-.17.17-.29l.17-.35h0l.23-.23c.06-.12.17-.23.29-.35h0l.06-.12c.12-.12.23-.29.41-.47h0Z" style="fill:#fff; stroke-width:0px;"/><path d="M105.56,29.99l8.15-9.73h-6.29c-.35,0-.7-.06-.93-.12-.35-.12-.58-.23-.82-.47h0c-.23-.17-.41-.41-.52-.64-.12-.29-.17-.58-.17-.87s.06-.58.17-.82c.12-.29.29-.52.52-.7s.47-.35.76-.47c.29-.06.64-.12.99-.12h10.13c.82,0,1.51.23,1.98.64.47.47.7,1.11.7,1.92,0,.35-.06.7-.12.99s-.17.58-.35.82c-.12.17-.29.41-.52.76-.23.23-.47.58-.82.99h0l-7.57,9.03h7.86c.76,0,1.34.17,1.75.52h0c.23.17.41.41.52.64.06.29.12.58.12.87s-.06.58-.12.82c-.12.29-.29.52-.52.76h0c-.23.17-.47.35-.82.41-.23.12-.58.12-.93.12h-11.59c-.47,0-.87-.06-1.22-.12-.41-.12-.76-.35-.99-.58h0c-.29-.23-.52-.52-.64-.87-.17-.35-.23-.7-.23-1.11,0-.12,0-.23.06-.41h0c0-.12.06-.23.12-.35v-.06c0-.12.06-.17.12-.29s.12-.23.23-.35h0c.06-.12.12-.17.17-.29.12-.06.17-.17.29-.29h0l.06-.12c.17-.17.29-.29.47-.52h0Z" style="fill:#fff; stroke-width:0px;"/><path d="M126.93,41.29l8.15-9.78h-6.29c-.35,0-.64,0-.93-.12-.35-.06-.58-.23-.82-.41h0c-.23-.17-.41-.41-.47-.7-.12-.23-.17-.52-.17-.82s.06-.58.12-.82c.12-.29.29-.52.52-.7.23-.23.47-.35.82-.47.23-.06.58-.12.93-.12h10.13c.87,0,1.51.23,1.98.64.47.47.7,1.11.7,1.92,0,.35,0,.64-.06.93-.12.35-.23.58-.35.87-.12.17-.35.41-.58.76-.17.23-.47.58-.82.99h0l-7.57,9.03h7.86c.76,0,1.34.12,1.75.47h0c.23.23.41.47.52.7.12.29.17.52.17.87,0,.29-.06.58-.17.82-.12.29-.29.52-.52.7h0c-.23.23-.47.35-.76.47-.29.06-.64.12-.99.12h-11.53c-.47,0-.87-.06-1.28-.17s-.7-.29-.99-.52h0c-.29-.23-.52-.52-.64-.87s-.23-.7-.23-1.11c0-.12.06-.29.06-.41s.06-.29.12-.41h0c.06-.12.06-.23.17-.35.06-.12.12-.17.17-.29h0c.06-.12.17-.23.23-.29s.12-.17.23-.29h0l.12-.12c.12-.17.23-.29.41-.52h0Z" style="fill:#fff; stroke-width:0px;"/></g></svg>